<?xml version="1.0" encoding="utf-8"?>
<!-- Generator: Adobe Illustrator 26.0.3, SVG Export Plug-In . SVG Version: 6.00 Build 0)  -->
<svg version="1.1" id="Livello_1" xmlns="http://www.w3.org/2000/svg" xmlns:xlink="http://www.w3.org/1999/xlink" x="0px" y="0px"
	 viewBox="0 0 560 534" style="enable-background:new 0 0 560 534;" xml:space="preserve">
<style type="text/css">
	.st0{fill:#FFFFFF;}
</style>
<path class="st0" d="M25.2,244.9L0,213L270,0l289.3,202.1l-23.3,33.4L271.5,50.7L25.2,244.9z"/>
<path class="st0" d="M542.3,510H293.2v-123c0.8,0.2,1.4,0.6,2.3,0.6h38.1c4.3,51.5,47.6,92.2,100.3,92.2c55.1,0,100-45.2,100-100.7
	c0-55.1-44.9-100-100-100c-15.4,0-30,3.6-43.1,9.7l-20.4-31c0-0.1-0.1-0.1-0.1-0.1l21.5-43.4c1.9-3.7,1.6-8.2-0.5-11.7
	c-2.2-3.5-6.1-5.7-10.2-5.7h-54c-6.7,0-12,5.4-12,12s5.4,12,12,12h34.5l-10.9,22.3l-124.5,0c-0.6-0.7-1.2-1.5-1.9-2L237,214
	c1.8-3.7,1.5-8.1-0.7-11.6c-2.2-3.5-6-5.6-10.2-5.6h-64.8c-6.7,0-12,5.4-12,12c0,6.7,5.4,12,12,12h45.8l-30.6,64.5
	c-10.2-3.5-21.1-5.5-32.6-5.5c-55.1,0-100,45.1-100,100.7c0,55.1,44.9,99.9,100,99.9c55.5,0,100.7-44.8,100.7-99.9
	c0-35.6-18.6-66.8-46.5-84.7l14-29.6c0.1,0.1,0.3,0,0.4,0.1l52.9,84v159.6H31c-6.7,0-12,5.4-12,12c0,6.7,5.4,12,12,12h511.3
	c6.7,0,12-5.4,12-12C554.4,515.3,549,510,542.3,510L542.3,510z M222.1,380.6c0,42.7-35.1,77.5-78.2,77.5
	c-42.7,0-77.5-34.8-77.5-77.5c0-43.1,34.8-78.2,77.5-78.2c7.9,0,15.5,1.5,22.7,3.8l-32,67.6c-2.8,6-0.3,13.2,5.7,16
	c1.7,0.8,3.4,1.2,5.2,1.2c4.5,0,8.8-2.6,10.9-6.9l32.1-67.7C208.7,330.6,222.1,354,222.1,380.6L222.1,380.6z M433.9,301.6
	c42.7,0,77.5,34.7,77.5,77.5c0,43-34.8,78.1-77.5,78.1c-40.2,0-73-30.6-77.3-69.6h77c4.4,0,8.5-2.5,10.6-6.4
	c2.1-3.9,1.9-8.6-0.6-12.3l-40.3-61.1C412.7,303.8,423,301.6,433.9,301.6L433.9,301.6z M383,320.7l28.2,42.8h-53.9
	C360.8,346.4,370.2,331.7,383,320.7z M357.8,282.5l12.6,19c-18.8,15.2-31.9,37.1-35.8,61.9h-17.2L357.8,282.5z M241.5,267.2h97
	l-42.9,85.9l-2.4-3.8v-37c0-7.7-6.2-13.9-13.9-13.9c-5.8,0-10.7,3.5-12.8,8.5L241.5,267.2z"/>
</svg>
