<?xml version="1.0" encoding="utf-8"?>
<!-- Generator: Adobe Illustrator 26.0.3, SVG Export Plug-In . SVG Version: 6.00 Build 0)  -->
<svg version="1.1" id="Livello_1" xmlns="http://www.w3.org/2000/svg" xmlns:xlink="http://www.w3.org/1999/xlink" x="0px" y="0px"
	 viewBox="0 0 405.8 560" style="enable-background:new 0 0 405.8 560;" xml:space="preserve">
<style type="text/css">
	.st0{fill:#FFFFFF;}
</style>
<path class="st0" d="M170.4,455.5c-7.9-23.2-22.5-43.5-41.8-58.5l-47.6-36.9C32.2,322.2,2.6,264.7,0,202.9C0,90.8,90.8,0,202.9,0
	s202.9,90.8,202.9,202.9c-2.6,61.8-32.2,119.3-81.1,157.2L277.2,397c-19.3,15-33.9,35.4-41.8,58.5l-5.6,16.3
	c-3.9,11.5-14.7,19.2-26.9,19.2s-22.9-7.7-26.9-19.2L170.4,455.5z M202.9,560c-44.8,0-81.2-5.4-81.2-12.2c0-6.7,36.3-12.2,81.2-12.2
	s81.2,5.4,81.2,12.2C284.1,554.5,247.7,560,202.9,560z M202.9,361.2c89.6,0,162.3-72.7,162.3-162.3c0-89.6-72.7-162.3-162.3-162.3
	S40.6,109.2,40.6,198.8S113.3,361.2,202.9,361.2z M149.7,151.9h-4.9c-3.7,0-6.7-3-6.7-6.7v-0.9c0-3.7,3-6.7,6.7-6.7h26.6
	c3.7,0,6.7,3,6.7,6.7v0.9c0,3.7-3,6.7-6.7,6.7H162l5.3,8.1h64.7l-12.8-24.2H211c-3.5,0-5.2-1.7-5.2-5c0-3.3,1.7-5,5.2-5h30.4
	c3.8,0,5.7,1.7,5.7,5c0,3.3-1.9,5-5.7,5h-9.5l30.9,54.2c4.8-1.9,10.6-2.9,17.6-2.9c12,0,22.4,4.4,31.1,13.1
	c8.7,8.7,13.1,19.2,13.1,31.4s-4.4,22.7-13.1,31.4c-8.7,8.7-19.2,13.1-31.4,13.1c-12.2,0-22.6-4.4-31.1-13.1
	c-8.6-8.7-12.8-19.1-12.8-31.1c0-14.6,5.7-26.3,17.1-35.2l-11.9-20.4l-26.3,45.6c-5.8,10-16.5,16.2-28.1,16.2h-17.9
	c-1.3,10.1-6.1,19.1-14.5,26.9c-8.4,7.8-18.1,11.6-29.2,11.6c-12.1,0-22.4-4.4-31.1-13.1c-8.7-8.7-13.1-19.2-13.1-31.4
	c0-12.2,4.4-22.7,13.1-31.4c8.7-8.7,19.1-13.1,31.1-13.1c6,0,11.9,1.1,17.6,3.3l14.7-25.7L149.7,151.9z M231.9,170h-58l29,49.5
	L231.9,170z M193.4,228l-29-50.4l-11.9,20.4c9.8,7.9,15.4,17.9,16.6,30H193.4z"/>
</svg>
