<svg id="Livello_1" data-name="Livello 1" xmlns="http://www.w3.org/2000/svg" viewBox="0 0 724.27 724.27"><defs><style>.cls-1{fill:#00a19a;}</style></defs><path class="cls-1" d="M241.92,305a87.43,87.43,0,0,0-49.66,0,38.54,38.54,0,0,0,0-53.56,86.36,86.36,0,0,0,24.84,3.62,88,88,0,0,0,24.82-3.57,38.57,38.57,0,0,0,0,53.47Zm-42.35-26.7a35.09,35.09,0,1,1-35.09-35.09h0A35.09,35.09,0,0,1,199.57,278.3Zm-24.56,0a10.53,10.53,0,1,0-10.53,10.53h0A10.54,10.54,0,0,0,175,278.3Zm-34.77,30a38.45,38.45,0,0,1-14-25.17A87.7,87.7,0,0,1,95,321.79a38.56,38.56,0,0,1,41.68,33.62,87.36,87.36,0,0,1,31.14-38.67,38.44,38.44,0,0,1-27.57-8.4Zm-19.83,24.58a35.09,35.09,0,1,1-49.34,5.27h0A35.1,35.1,0,0,1,120.41,332.88ZM105,352a10.53,10.53,0,1,0,1.58,14.81A10.54,10.54,0,0,0,105,352Zm199.84-73.7a35.09,35.09,0,1,1-35.09-35.09h0A35.09,35.09,0,0,1,304.84,278.3Zm-24.56,0a10.53,10.53,0,1,0-10.53,10.53h0A10.55,10.55,0,0,0,280.28,278.3Zm31.65-51.63A38.47,38.47,0,0,1,298,201.42a87.59,87.59,0,0,1-12.93,21.48,86.69,86.69,0,0,1-18.52,16.94A38.58,38.58,0,0,1,308,273.72a87.41,87.41,0,0,1,31.39-38.48,38.46,38.46,0,0,1-27.53-8.57Zm46.62-57.06a35.09,35.09,0,1,1-49.38,5,35.08,35.08,0,0,1,49.38-5Zm-15.54,19a10.53,10.53,0,1,0,1.48,14.82h0a10.55,10.55,0,0,0-1.5-14.79Z"/><path class="cls-1" d="M455.71,425.11l-22,21.78c-14.46-19.52-30.7-23.83-44.73-11.6-14.3,12.47-15.47,34.86-2.47,47.49,13.7,13.3,31.59,10.28,47.16-8.12l21.47,22.45c-17.89,22.88-44.39,30.77-71,20.66-22.89-8.71-39.39-33.85-37.82-57.63,2.06-31.24,20.43-55.08,47.1-61.14C418.61,393.29,443.4,403.71,455.71,425.11Z"/><path class="cls-1" d="M500.07,519.51H470.81V355.88h29.26Z"/><path class="cls-1" d="M329.85,519.51h-29.4V402.76h29.4Z"/><path class="cls-1" d="M335.36,370.79c-.13,11.19-8.84,19.67-20.2,19.67a20.07,20.07,0,0,1-20.39-19.76c0-.26,0-.51,0-.76a20.34,20.34,0,0,1,20.37-19.79C326.72,350.14,335.5,359.09,335.36,370.79Z"/><path class="cls-1" d="M537.4,365.14l19-23.76,33.2,31-12.84,17.08Z"/><path class="cls-1" d="M239.09,399.48c-15.85-4.15-31-2.61-45.76,9V355.79h-29.6c0,38.57-1,76.72.44,114.77.69,18.2,11.3,33,27.47,42.42,20.9,12.17,42.44,12.31,63.3.16,20.34-11.84,28.48-31.07,28.6-53.67C283.7,430.29,265.73,406.47,239.09,399.48Zm-16,91.56c-16-.11-29-14.12-28.9-31.2,0-16.78,13.39-31.13,29-31.2,16.36-.08,29.56,14.12,29.34,31.59-.13,16.86-13.53,30.91-29.4,30.77Z"/><path class="cls-1" d="M577.67,397.42c-34.25-.22-60.82,26.8-61.11,62.12-.27,34.46,26.39,62.05,60.09,62.19,34.55.15,60.63-26.66,60.58-62.25C637.18,423.64,612.22,397.64,577.67,397.42Zm-.32,93.63c-16.11.11-29.71-14.45-29.58-31.67.13-17.5,12.65-30.7,29.15-30.76,17-.05,29.3,13.14,29.25,31.34,0,17.51-12.53,31-28.82,31.09Z"/></svg>