<svg id="Livello_1" data-name="Livello 1" xmlns="http://www.w3.org/2000/svg" viewBox="0 0 568.34 138.32"><defs><style>.cls-1{fill:#00a19a;}</style></defs><g id="logo-long-ai"><path class="cls-1" d="M105.79,84.86a51.82,51.82,0,0,0-29.41,0,22.84,22.84,0,0,0,0-31.72,51.24,51.24,0,0,0,14.71,2.15,52,52,0,0,0,14.7-2.12,22.83,22.83,0,0,0,0,31.67ZM80.71,69.05A20.78,20.78,0,1,1,59.93,48.27h0A20.78,20.78,0,0,1,80.71,69.05Zm-14.55,0a6.24,6.24,0,1,0-6.23,6.23h0a6.24,6.24,0,0,0,6.23-6.23ZM45.57,86.81a22.76,22.76,0,0,1-8.29-14.9A51.66,51.66,0,0,1,29.7,84.68,51.71,51.71,0,0,1,18.78,94.8a22.84,22.84,0,0,1,24.68,19.91A51.9,51.9,0,0,1,61.9,91.81a22.77,22.77,0,0,1-16.32-5ZM33.83,101.37a20.78,20.78,0,1,1-29.22,3.12h0A20.79,20.79,0,0,1,33.83,101.37ZM24.7,112.69a6.24,6.24,0,1,0,.94,8.77,6.24,6.24,0,0,0-.94-8.77ZM143.05,69.05a20.78,20.78,0,1,1-20.78-20.78h0A20.78,20.78,0,0,1,143.05,69.05Zm-14.55,0a6.24,6.24,0,1,0-6.23,6.23h0A6.23,6.23,0,0,0,128.5,69.05Zm18.74-30.58A22.73,22.73,0,0,1,139,23.52a52.08,52.08,0,0,1-7.66,12.72,51,51,0,0,1-11,10,22.84,22.84,0,0,1,24.56,20.07,51.85,51.85,0,0,1,18.59-22.79,22.73,22.73,0,0,1-16.3-5.08ZM174.85,4.68a20.78,20.78,0,1,1-29.24,3,20.78,20.78,0,0,1,29.24-3Zm-9.2,11.25a6.24,6.24,0,1,0,.88,8.78h0a6.23,6.23,0,0,0-.89-8.76Z"/><path class="cls-1" d="M431.75,64.14,415.19,80.53c-10.88-14.69-23.1-17.93-33.65-8.73-10.76,9.39-11.64,26.23-1.86,35.74,10.31,10,23.77,7.73,35.48-6.11l16.16,16.89c-13.46,17.22-33.4,23.15-53.43,15.55-17.22-6.56-29.64-25.47-28.45-43.37,1.55-23.51,15.37-41.45,35.44-46C403.83,40.2,422.49,48,431.75,64.14Z"/><path class="cls-1" d="M465.13,135.18h-22V12.05h22Z"/><path class="cls-1" d="M337,135.18H314.92V47.32H337Z"/><path class="cls-1" d="M341.19,23.27A14.81,14.81,0,0,1,326,38.07,15.11,15.11,0,0,1,310.64,23.2v-.57A15.31,15.31,0,0,1,326,7.74,15,15,0,0,1,341.19,23.27Z"/><path class="cls-1" d="M493.22,19l14.3-17.88,25,23.32-9.66,12.86Z"/><path class="cls-1" d="M268.75,44.86c-11.93-3.13-23.33-2-34.44,6.77V12H212c0,29-.75,57.73.33,86.36.52,13.7,8.5,24.83,20.67,31.92,15.73,9.16,31.94,9.27,47.63.12C296,121.47,302.1,107,302.19,90,302.31,68,288.79,50.12,268.75,44.86Zm-12,68.89c-12-.08-21.79-10.62-21.75-23.47C235,77.65,245,66.85,256.78,66.8c12.31-.06,22.25,10.62,22.08,23.77-.1,12.69-10.18,23.26-22.12,23.15Z"/><path class="cls-1" d="M523.52,43.31c-25.77-.17-45.76,20.16-46,46.74-.21,25.93,19.86,46.69,45.21,46.8,26,.11,45.63-20.06,45.59-46.85C568.3,63,549.52,43.47,523.52,43.31Zm-.24,70.45c-12.12.08-22.35-10.87-22.26-23.83.1-13.17,9.52-23.1,21.94-23.15,12.79,0,22,9.89,22,23.59,0,13.17-9.43,23.3-21.69,23.39Z"/></g></svg>