<?xml version="1.0" encoding="utf-8"?>
<!-- Generator: Adobe Illustrator 26.0.1, SVG Export Plug-In . SVG Version: 6.00 Build 0)  -->
<svg version="1.1" id="Livello_1" xmlns="http://www.w3.org/2000/svg" xmlns:xlink="http://www.w3.org/1999/xlink" x="0px" y="0px"
	 viewBox="0 0 326.8 308.7" style="enable-background:new 0 0 326.8 308.7;" xml:space="preserve">
<style type="text/css">
	.st0{clip-path:url(#SVGID_00000039125839514592141090000008313224017231554994_);}
	.st1{clip-path:url(#SVGID_00000039125839514592141090000008313224017231554994_);fill:#FFFFFF;}
</style>
<g>
	<defs>
		<rect id="SVGID_1_" x="-0.7" y="0.4" width="327.5" height="308.3"/>
	</defs>
	<clipPath id="SVGID_00000149367802592258593270000010101724549481296269_">
		<use xlink:href="#SVGID_1_"  style="overflow:visible;"/>
	</clipPath>
	<path style="clip-path:url(#SVGID_00000149367802592258593270000010101724549481296269_);" d="M184.5,130.8c1.7,0,3.1,0.4,3.5-0.1
		c4.8-5.5,9.5-11.1,14.1-16.8c0.3-0.4,0.1-1.4-0.2-2c-0.4-0.9-1-1.6-1.8-2.9C191.7,114.2,185.5,120.2,184.5,130.8 M7.3,45.7
		c90.3-40,159.4-21.5,203.2,70.5c2.5-1.6,4.2-2.7,5.9-3.8C173.2,5.6,71.2,2.9,5.1,41.2C5.8,42.7,6.6,44.2,7.3,45.7 M320.7,295
		c6.1-54.3-10.8-104.9-61.5-137.3c-45.3-29-106.8-28.1-149.2,2C61.2,194.5,43.1,248.3,48.8,295H320.7z M319.3,301.4H50.5
		c-1.9,2.7-3.5,5-5.1,7.3C31.9,217.2,86.4,145.4,165,133c9.4-1.5,13.9-3.9,17.3-12.8c2.5-6.5,9-11.5,14.1-17.6
		C160.6,28.4,85,14.7,18.3,47.9c0.7,2.3,1.6,4.6,2,7c0.2,1.5-0.4,3.1-0.6,4.6c-1.4-1-3.2-1.6-4.2-2.9c-1.2-1.5-1.6-3.6-2.4-5.4
		c-8.5,1.4-13.3-2-13.8-10.6c-0.1-1.8,2.5-4.9,4.5-5.6C21.9,28.4,40.1,22.2,58.3,16c2.1-0.7,4.3-1,6.9-1.6c-1-3.6-2.1-6.6-2.6-9.7
		c-0.2-1.3,1.1-2.8,1.7-4.3c1.1,0.8,3.1,1.6,3.2,2.5c0.8,12.9,9.6,10.3,18.1,10.4c54.9,0.6,96.2,24.8,123.5,72.4
		c3.9,6.7,7.2,13.8,10.4,20.9c1.3,2.8,3.1,7.9,2.1,8.7c-3.8,3.1-8.5,6.4-13.1,6.7c-9.1,0.5-9.8,0.1-12.6,8.7
		c11.1,2.5,22.5,4.3,33.4,7.6c57.4,17.4,96.4,69.5,97.3,129.4c0.2,11.1,0.2,22.1,0,33.2c0,2.4-1.2,4.9-1.8,7.3
		C323.2,306.2,321.6,304.2,319.3,301.4"/>
	<path style="clip-path:url(#SVGID_00000149367802592258593270000010101724549481296269_);fill:#FFFFFF;" d="M184.6,287.5
		c28.7,0,57.3,0,86,0c11.6,0,23.1,0,34.7,0c3.5,0,6.4-0.1,6.4-5c0.3-18.9-0.6-37.6-7.1-55.7c-22.8-63.6-99.6-97.2-165.4-72.4
		c-45.3,17.2-80.8,71.3-81.5,123.9c-0.1,7.3,1.9,9.4,9.2,9.4C106.1,287.3,145.3,287.5,184.6,287.5 M320.7,295H48.8
		c-5.7-46.8,12.4-100.5,61.2-135.3c42.4-30.2,103.9-31,149.2-2C309.8,190.1,326.7,240.8,320.7,295"/>
	<path style="clip-path:url(#SVGID_00000149367802592258593270000010101724549481296269_);fill:#FFFFFF;" d="M7.3,45.7
		c-0.7-1.5-1.4-3-2.2-4.6C71.2,2.9,173.2,5.6,216.4,112.4c-1.7,1.1-3.5,2.2-5.9,3.8C166.7,24.3,97.6,5.7,7.3,45.7"/>
	<path style="clip-path:url(#SVGID_00000149367802592258593270000010101724549481296269_);fill:#FFFFFF;" d="M184.5,130.8
		c1.1-10.6,7.2-16.6,15.6-21.7c0.8,1.3,1.4,2,1.8,2.9c0.3,0.6,0.5,1.6,0.2,2c-4.6,5.7-9.3,11.3-14.1,16.8
		C187.5,131.2,186.1,130.8,184.5,130.8"/>
	<path style="clip-path:url(#SVGID_00000149367802592258593270000010101724549481296269_);" d="M62.6,281.3h243.9
		c2.1-44.8-12.6-81.5-49.8-107c-40.7-27.9-85-31.9-128.1-8.2C84.6,190.2,66.1,231.7,62.6,281.3 M184.6,287.5
		c-39.2,0-78.5-0.2-117.7,0.2c-7.3,0.1-9.3-2.1-9.2-9.4c0.7-52.5,36.2-106.7,81.5-123.9c65.8-24.9,142.6,8.8,165.4,72.4
		c6.5,18.1,7.3,36.8,7.1,55.7c-0.1,4.9-3,5.1-6.4,5c-11.6,0-23.1,0-34.7,0C241.9,287.5,213.2,287.5,184.6,287.5"/>
	<path style="clip-path:url(#SVGID_00000149367802592258593270000010101724549481296269_);" d="M186.5,234.9
		c7.3-14.2,13.9-27.2,20.6-40.2h-46.8C169.1,208.3,177.4,221,186.5,234.9 M140.8,214.4c-12.2-4.4-25.9,2.5-30.7,15
		c-5,13.3,2,27.8,15.9,32.8c13.2,4.8,28.2-2.4,33-15.8c4.2-11.7-1.5-25.5-12.5-29.4c-2.7,6.4-5.2,12.9-8.2,19.2
		c-0.9,1.9-3.2,3.1-4.8,4.7c-0.2-2.4-1.1-5-0.4-7.1C135.3,227.3,138.1,221.2,140.8,214.4 M222.6,216.3
		c-13.4,8.3-17.2,21.9-10.3,34.2c7,12.3,22.8,16.8,35.3,9.9c12.2-6.8,16.9-21.5,10.6-33.7c-5.9-11.4-19.4-17-29.5-12.1
		c2.8,6.7,5.7,13.3,8.2,20.1c0.6,1.7-0.3,4-0.5,6.1c-1.7-1.3-4.3-2.3-5.1-4C228.2,230.3,225.6,223.6,222.6,216.3 M219.8,209.5
		c-1.8-4.4-3.5-8.6-5.7-14.1c-4.7,9-8.8,17.1-13,25.2c-3.2,6.2-6.4,12.5-9.8,18.7c-3.5,6.5-4.9,6.5-9.1,0.2
		c-7.5-11.3-14.8-22.7-22.2-34.1c-1.5-2.3-3.1-4.4-5.3-7.7c-1.9,4.5-3.4,8.1-4.8,11.5c17.7,14.9,21.8,30.3,12.3,45.4
		c-8.3,13.3-25.8,18.8-40.3,12.6c-14.9-6.3-22.6-22-18.5-37.8c4.2-16,19.4-24.6,40.4-22.4c3.9-9.5,8.3-19.1,11.8-28.9
		c2.3-6.5,7.4-5.1,11.9-4.9c2.5,0.1,4.9,1.6,7.1,3.5c-5.4,4-15.3-0.8-15,11.1c16,0,32,0.3,47.9-0.3c2.5-0.1,4.9-3.8,8.9-7.1
		c-3.7-0.7-5.2-0.7-6.4-1.3c-1.2-0.6-2.2-1.6-3.3-2.5c1.2-1.1,2.4-2.9,3.7-3c5-0.3,10-0.3,15,0c1.1,0.1,2.2,1.6,3.3,2.5
		c-1.1,1-2,2.4-3.3,3c-6.2,2.6-8.3,6.8-5.9,13c1.9,4.9,4.1,9.7,6.1,14.4c23.5-1,37.5,7.7,40.9,25.3c3.1,15.6-5.4,30.5-20.5,36
		c-14.8,5.4-31.9-1-39.6-14.8C198.3,238.4,202.9,222.8,219.8,209.5"/>
	<path style="clip-path:url(#SVGID_00000149367802592258593270000010101724549481296269_);fill:#FFFFFF;" d="M222.6,216.3
		c3,7.2,5.6,14,8.7,20.5c0.8,1.8,3.4,2.7,5.1,4c0.2-2,1.1-4.3,0.5-6.1c-2.5-6.8-5.4-13.4-8.2-20.1c10.1-4.9,23.6,0.8,29.5,12.1
		c6.3,12.1,1.6,26.9-10.6,33.7c-12.4,6.9-28.3,2.4-35.3-9.9C205.4,238.2,209.1,224.6,222.6,216.3"/>
	<path style="clip-path:url(#SVGID_00000149367802592258593270000010101724549481296269_);fill:#FFFFFF;" d="M140.8,214.4
		c-2.7,6.7-5.5,12.9-7.7,19.3c-0.7,2.1,0.3,4.7,0.4,7.1c1.6-1.5,3.9-2.8,4.8-4.7c3-6.3,5.5-12.8,8.2-19.2
		c11,3.8,16.7,17.7,12.5,29.4c-4.8,13.4-19.8,20.6-33,15.8c-13.9-5-20.9-19.5-15.9-32.8C114.9,216.9,128.6,210,140.8,214.4"/>
	<path style="clip-path:url(#SVGID_00000149367802592258593270000010101724549481296269_);fill:#FFFFFF;" d="M186.5,234.9
		c-9.1-14-17.4-26.6-26.2-40.2h46.8C200.4,207.8,193.8,220.7,186.5,234.9"/>
</g>
</svg>
